<?xml version="1.0" encoding="UTF-8" standalone="no"?>
<svg
   viewBox="0 0 64 64"
   version="1.1"
   id="svg1271"
   sodipodi:docname="logo.svg"
   inkscape:export-filename="logo.svg"
   inkscape:export-xdpi="96"
   inkscape:export-ydpi="96"
   inkscape:version="1.4.3 (0d15f75042, 2025-12-25)"
   xmlns:inkscape="http://www.inkscape.org/namespaces/inkscape"
   xmlns:sodipodi="http://sodipodi.sourceforge.net/DTD/sodipodi-0.dtd"
   xmlns="http://www.w3.org/2000/svg"
   xmlns:svg="http://www.w3.org/2000/svg">
  <defs
     id="defs1275" />
  <sodipodi:namedview
     id="namedview1273"
     pagecolor="#ffffff"
     bordercolor="#000000"
     borderopacity="0.25"
     inkscape:showpageshadow="2"
     inkscape:pageopacity="0.0"
     inkscape:pagecheckerboard="0"
     inkscape:deskcolor="#d1d1d1"
     showgrid="false"
     inkscape:zoom="6.8125"
     inkscape:cx="-7.559633"
     inkscape:cy="3.0825688"
     inkscape:window-width="1872"
     inkscape:window-height="1044"
     inkscape:window-x="0"
     inkscape:window-y="0"
     inkscape:window-maximized="1"
     inkscape:current-layer="svg1271" />
  <path
     style="fill:#000000;stroke-width:0.0646219"
     d="M 0.66170966,33.317726 C 0.65827786,32.020844 0.68665396,31.365913 0.77593865,30.682102 2.0235152,21.126889 7.0716361,15.490974 8.606225,13.973121 c 1.0986874,-1.086705 1.712706,-1.660138 2.02967,-1.89551 0.490894,-0.364532 0.545635,-0.44466 0.772882,-1.131311 0.940424,-2.8415826 3.971361,-7.6180454 13.719766,-7.56173 l 0.323348,-0.2325302 c 0.946976,-0.8527033 2.133086,-1.3910603 3.298739,-1.8984194 4.121115,-1.47280574 8.529394,-0.35021565 11.97989,2.3413879 0.486652,0.5008222 9.746069,-0.082367 12.927751,8.1357037 0.274701,0.709533 0.38684,0.858349 1.381695,1.833584 2.236744,2.192631 6.269768,7.041191 7.832488,14.663316 0.398671,1.944514 0.464118,2.672547 0.466036,5.184244 0.0021,2.673876 -0.03757,3.06222 -0.566767,5.556425 -3.026341,14.263706 -15.58942,21.499271 -22.522609,23.311766 -0.329406,0.08612 -0.868433,0.226782 -1.197839,0.312596 C 25.38845,66.151932 0.72454149,57.027295 0.66170966,33.317726 Z M 26.607069,61.534003 c 1.582401,-0.398603 4.558439,-4.285886 4.558439,-4.305186 0,-0.611828 -0.327296,-0.155218 -1.798945,-1.835935 0.305419,-0.274432 0.875341,-0.850787 0.576319,-1.09333 -0.243849,-0.197794 -0.47951,-0.245299 -0.695373,-0.140176 -1.60302,1.479474 -3.390125,2.842231 -4.70347,4.588396 -0.238241,0.454193 -0.255063,0.523497 -0.258957,1.0668 -0.01387,1.927803 1.845644,1.839416 2.321987,1.719424 z m 13.423815,-0.03089 c 0.868693,-0.203988 1.018075,-0.722538 1.169509,-1.498317 0.0373,-0.638048 -0.05578,-1.011844 -0.363639,-1.460388 C 40.70423,58.351324 39.68428,57.342232 38.521629,56.253928 31.888326,50.044803 26.340772,44.551021 25.447833,43.806867 l -0.704068,-0.586755 -0.07823,-0.856563 c -0.08247,-0.902894 -0.201656,-1.705669 -0.28465,-1.91723 -0.03924,-0.10003 -0.08168,-0.03529 -0.203339,0.310246 -0.685986,1.948214 -1.775896,2.988246 -4.038784,3.853949 -0.409921,0.156823 -0.7543,0.31337 -0.765286,0.347884 -0.02598,0.08163 0.62884,0.206874 1.344229,0.257112 0.466811,0.03278 0.63344,0.01793 0.953645,-0.08497 0.425406,-0.136717 0.408298,-0.147469 0.474921,0.298507 0.0232,0.155313 0.08826,0.348762 0.144556,0.429886 0.110867,0.15974 0.190981,0.160577 0.761075,0.0079 0.346335,-0.19661 0.490226,0.108164 0.798559,0.218332 0.59485,0.361046 0.566064,0.33723 0.489595,0.405047 -0.09014,0.07995 -1.177435,-0.118993 -1.219053,-0.08318 -0.08266,0.07118 0.304228,0.456933 5.879249,5.862028 3.940564,3.820456 5.674321,5.52935 6.615617,6.520744 1.033975,1.089003 2.195519,2.1813 2.570307,2.417073 0.660881,0.415749 1.111038,0.488025 1.844714,0.296181 z m -7.880808,-7.839014 c -2.161399,-2.055513 -2.753071,-2.629675 -3.652862,-3.524579 0.303888,-0.297509 0.535675,-0.653155 0.781781,-0.992144 0.0207,-0.07778 0.05876,-0.141416 0.08459,-0.141416 0.09169,0 6.115917,5.821229 6.219265,6.00969 l 0.105121,0.191692 c -0.289551,0.277068 -0.612547,0.51446 -0.925063,0.762233 -0.1059,0.05345 -0.473033,-0.2705 -2.612834,-2.305476 z m 10.751401,-8.017627 c 0.05569,-0.164221 0.533855,-0.441694 0.917495,-0.532419 0.124262,-0.02939 1.920233,0.278714 1.920233,-0.188534 0,-0.155035 -0.164407,-0.252954 -0.879331,-0.523721 -2.039608,-0.772476 -2.941054,-2.12479 -3.18811,-2.561233 -0.274332,-0.484624 -0.506927,-0.982809 -0.622097,-1.332431 -0.110351,-0.334998 -0.173812,0.173035 -0.250474,2.005181 -0.0011,0.02608 -0.06267,1.442276 -0.548777,1.032485 -0.196734,0.09928 -6.755778,6.512191 -6.755778,6.577709 0,0.0345 0.442006,0.496077 0.982236,1.025727 0.54023,0.529649 1.067265,1.068186 1.171191,1.19675 l 0.188955,0.23375 0.221346,-0.159204 c 5.261676,-4.947117 6.813761,-6.68752 6.843111,-6.77406 z M 17.956016,43.853516 c 0.329406,-0.103671 0.883406,-0.33114 1.231112,-0.505485 1.694274,-0.849536 2.893296,-1.999166 3.733488,-3.579695 0.600161,-1.128994 0.711426,-1.705086 0.434306,-2.248683 C 23.234948,37.28431 22.19262,35.934893 21.54953,35.182355 19.924753,33.281056 14.840653,26.91712 14.047421,26.262778 13.68027,25.959913 12.959772,25.660394 12.28242,25.529047 c -0.909427,-0.176348 -2.6135719,0.180886 -3.5017624,0.734062 -1.1457875,0.71361 -2.1043584,1.643842 -2.743002,2.661909 -0.8962415,1.428703 -1.0198736,2.920795 -0.3571476,4.31034 0.421135,0.882997 0.7297521,1.203225 5.854798,6.075065 2.214904,2.105476 4.235522,4.050236 4.490262,4.321688 l 0.463161,0.493552 c 0.502899,-0.01549 0.982953,-0.152143 1.467287,-0.272152 z M 15.8598,40.481669 c 0,-0.03138 -0.262027,-0.269002 -0.582283,-0.528044 -0.583307,-0.471814 -7.2791463,-6.681859 -7.191209,-6.878404 0.3394404,-0.344695 0.7097773,-0.65937 1.0711771,-0.981177 2.4494479,2.625969 5.3562129,4.863641 7.7005129,7.582555 0,0.130255 -0.998198,0.983938 -0.998198,0.805072 z M 17.091,38.484646 C 16.060306,37.405633 10.77944,32.288231 10.167113,31.531189 L 9.97757,31.296854 c 0.310547,-0.322125 0.671227,-0.590615 1.016916,-0.865763 0.281588,0 7.583368,7.581091 7.61063,7.625899 -0.169589,0.439833 -0.629699,0.616007 -1.008251,0.845748 -0.09529,0 -0.505865,-0.413181 -0.505865,-0.418092 z m -5.014299,-8.814729 c -0.07557,-0.114106 -0.03117,-0.1766 0.468304,-0.659141 l 0.551785,-0.533085 0.300123,0.305994 c 1.75817,1.885048 6.871494,7.586775 6.90365,7.660979 0.035,0.08078 -0.566821,0.713767 -0.787668,0.828451 -2.657408,-2.221313 -5.021816,-5.056881 -7.436194,-7.603198 z M 48.942974,43.984275 C 50.597514,42.531913 59.555596,33.933141 60.659203,32.755448 59.3199,31.189859 53.53499,25.950005 53.357224,25.864842 c -0.653764,-0.3132 -1.227324,-0.22957 -1.945717,0.283706 -2.958609,3.230129 -5.705546,6.715015 -8.485494,10.1138 -0.701358,0.715138 -1.354016,1.81612 -0.669972,3.111036 1.090401,2.064173 2.32043,3.220023 4.450397,4.182011 0.976958,0.441238 1.676908,0.575461 2.236536,0.42888 z m -0.518089,-4.297127 c 2.588097,-2.525849 5.172051,-5.055971 7.770945,-7.570724 l 1.15576,1.080113 c -2.644173,2.439575 -5.226864,4.948467 -7.918885,7.335141 -0.364642,-0.240596 -0.681767,-0.5533 -1.00782,-0.84453 z m -1.687472,-1.616663 c 0,-0.0023 7.352596,-7.639396 7.541904,-7.639396 0.09038,0 1.042602,0.882367 1.042602,0.966119 0,0.01782 -5.320934,5.468938 -7.620263,7.568281 -0.104582,0 -0.964243,-0.861281 -0.964243,-0.895004 z m -0.744506,-0.790029 c -0.698316,-0.252044 -0.586659,-0.706063 -0.703731,-1.114698 2.132754,-2.295707 4.086845,-4.762344 6.293302,-6.983441 0.7226,-0.889229 1.175669,-0.279583 1.83621,0.287912 -2.555411,2.51064 -4.6834,5.509838 -7.425781,7.810227 z M 42.3669,32.172483 c 0.0198,-0.07766 0.05738,-2.16733 0.08353,-4.643718 l 0.04754,-4.502524 0.53924,-5.3e-5 C 45.030651,23.026 46.855168,22.601308 48.301256,21.800896 53.653229,18.838574 55.114915,10.430319 47.579579,6.781259 42.841816,4.4869508 41.024678,6.4257957 39.317461,4.9108103 36.131159,2.0832807 30.199941,0.97137399 25.845957,4.8423715 25.184518,4.6918865 21.658929,3.9885266 18.754575,5.3462046 c -0.649236,0.3034958 -4.308561,2.1701158 -5.430032,6.1648784 -0.501901,1.787821 -0.368818,4.337399 0.320878,6.14729 0.52597,1.380248 2.112844,4.449071 6.007533,5.203049 2.744795,0.811829 3.865582,-0.755743 2.119683,-0.900027 C 11.112554,21.504552 11.306929,3.5723035 26.046121,6.2510629 31.029564,2.2321006 36.572205,4.9557967 37.750953,9.3461064 c 0.14428,0.537379 0.424632,2.0703726 0.385394,2.1073736 -0.01434,0.01352 -0.07959,-0.193899 -0.144994,-0.46093 -0.387985,-1.5840015 -1.550852,-3.2337686 -2.8436,-4.0342413 -1.63898,-1.645125 -8.482228,-0.8902939 -6.985452,2.165818 -0.01488,0.014031 -0.32598,-0.086442 -0.691326,-0.223276 C 15.476855,4.4085955 14.635038,21.080901 22.780642,21.080901 v 5.585013 5.585012 h 0.187096 c 0.102903,0 0.650942,-0.124405 1.217866,-0.276454 1.520685,-0.407851 3.683822,-0.761247 5.637623,-0.921032 1.211807,-0.0991 5.201832,-0.04104 6.39982,0.09312 1.805315,0.202183 4.096763,0.621211 5.323725,0.973526 0.782559,0.224708 0.776302,0.224309 0.820118,0.0524 z m -3.615084,-4.449282 c -0.259346,-0.10025 -11.855064,-1.721639 -11.80817,-2.061333 0.05702,0 0.70834,-0.07665 1.447388,-0.17032 1.70245,-0.215788 4.379168,-0.230429 8.098199,-0.07205 V 22.21045 c -17.747973,0.910136 -7.637456,-0.952038 2.617098,-3.074868 -0.03425,2.703232 0.758774,5.991664 -0.354515,8.587615 z m 4.359394,-6.803123 c 3.315905,-0.454074 6.06106,-2.502093 6.09697,-5.848146 0.04277,-3.983728 -5.408031,-7.5184682 -10.612797,-2.807817 0.354249,-0.694475 0.885759,-1.239367 1.437823,-1.778776 1.360516,-1.2945122 2.792945,-2.0092026 4.441913,-2.2162324 2.929669,-0.3678237 6.670341,1.6901506 6.680834,6.0344794 0.0025,1.042235 -0.08425,1.588166 -0.395513,2.488683 -0.750051,2.169938 -2.239531,3.788547 -4.18778,4.550836 -0.910323,0.35618 -1.831676,0.511721 -3.418718,0.57714 0,0 -0.510224,-0.687865 -0.04273,-1.000167 z"
     id="path1277"
     sodipodi:nodetypes="scssscsssssscsssscsssscsscsssscsscssssscccsssssccssssscsssssssssssssscssssssssssssssccsssscssssscsssssscssssscsssssscscccsssssssscssccssssssssssssscssssccssscssscscsccsssscsccsscsss" />
</svg>
