<?xml version="1.0" encoding="UTF-8" standalone="no"?>
<svg
   viewBox="0 0 64 64"
   version="1.1"
   id="svg1271"
   sodipodi:docname="logo.svg"
   inkscape:export-filename="logo.svg"
   inkscape:export-xdpi="96"
   inkscape:export-ydpi="96"
   inkscape:version="1.4.3 (0d15f75042, 2025-12-25)"
   xmlns:inkscape="http://www.inkscape.org/namespaces/inkscape"
   xmlns:sodipodi="http://sodipodi.sourceforge.net/DTD/sodipodi-0.dtd"
   xmlns="http://www.w3.org/2000/svg"
   xmlns:svg="http://www.w3.org/2000/svg">
  <defs
     id="defs1275" />
  <sodipodi:namedview
     id="namedview1273"
     pagecolor="#ffffff"
     bordercolor="#000000"
     borderopacity="0.25"
     inkscape:showpageshadow="2"
     inkscape:pageopacity="0.0"
     inkscape:pagecheckerboard="0"
     inkscape:deskcolor="#d1d1d1"
     showgrid="false"
     inkscape:zoom="16"
     inkscape:cx="15.03125"
     inkscape:cy="13.3125"
     inkscape:window-width="1872"
     inkscape:window-height="1044"
     inkscape:window-x="0"
     inkscape:window-y="0"
     inkscape:window-maximized="1"
     inkscape:current-layer="svg1271" />
  <path
     style="fill:#000000;stroke-width:0.0646219"
     d="M 1.2867097,33.442726 C 0.99249609,18.177932 11.181593,12.764512 11.721277,11.1338 12.661701,8.2922174 17.442638,1.5782546 25.128543,3.38457 l 0.323348,-0.2325302 c 0.946976,-0.8527033 2.133086,-1.3910603 3.298739,-1.8984194 4.121115,-1.47280574 8.529394,-0.35021565 11.97989,2.3413879 0.486652,0.5008222 10.871069,-0.644867 12.927751,8.1357037 0.173519,0.740803 0.38684,0.858349 1.381695,1.833584 3.928496,3.851018 8.37237,10.693847 8.231757,20.153985 C 63.020925,50.591408 47.818644,62.717939 32.338785,62.655071 17.424868,62.594501 1.6296858,51.237484 1.2867097,33.442726 Z m 30.0426313,23.22137 c 0.179852,-0.837705 -0.327296,-0.155218 -1.798945,-1.835935 0.305419,-0.274432 0.875341,-0.850787 0.576319,-1.09333 -0.243849,-0.197794 -0.47951,-0.245299 -0.695373,-0.140176 -1.579192,1.771147 -4.531771,3.74521 -4.365603,5.525452 0.312305,3.345893 5.811541,-0.257272 6.283602,-2.456011 z m 8.819913,1.286562 C 40.015647,57.755996 26.367234,44.573076 24.743765,43.220112 l -0.07823,-0.856563 c -0.08247,-0.902894 -0.201656,-1.705669 -0.28465,-1.91723 -1.245559,3.495381 -4.937329,4.291912 -5.007409,4.512079 -0.02598,0.08163 0.62884,0.206874 1.344229,0.257112 0.466811,0.03278 0.63344,0.01793 0.953645,-0.08497 0.425406,-0.136717 0.408298,-0.147469 0.474921,0.298507 8.428472,7.826402 14.151166,14.088174 15.446154,14.90283 1.046394,0.463729 3.585146,-0.882984 2.556829,-2.381219 z M 28.497214,50.13952 c 0.457029,-0.447436 0.847594,-1.13356 0.866371,-1.13356 0.03566,0 5.984045,5.580757 6.324386,6.201382 -0.289551,0.277068 -0.612547,0.51446 -0.925063,0.762233 -0.132022,0.06663 -4.027384,-3.603902 -6.265694,-5.830055 z m 14.404263,-4.493048 c 0.310444,-0.91545 2.837728,-0.12753 2.837728,-0.720953 0,-0.155035 -0.164407,-0.252954 -0.879331,-0.523721 -2.039608,-0.772476 -2.941054,-2.12479 -3.18811,-2.561233 -0.274332,-0.484624 -0.506927,-0.982809 -0.622097,-1.332431 -0.110351,-0.334998 -0.173812,0.173035 -0.250474,2.005181 -0.05318,1.260738 -7.304555,7.125449 -7.304555,7.610194 0,0.137067 0.912966,0.830163 2.342382,2.456227 0.702404,-0.505207 6.95892,-6.622084 7.064457,-6.933264 z M 17.956016,43.853516 c 0.329406,-0.103671 0.883406,-0.33114 1.231112,-0.505485 1.694274,-0.849536 2.893296,-1.999166 3.733488,-3.579695 0.600161,-1.128994 0.711426,-1.705086 0.434306,-2.248683 -0.278473,-0.546257 -8.595296,-10.669372 -9.307501,-11.256875 -3.351095,-2.764338 -10.5639077,2.366117 -8.366913,6.97258 0.8844896,1.854517 7.380965,7.238164 10.808221,10.890305 0.683742,-0.02106 1.467287,-0.292364 1.467287,-0.272147 z M 15.8598,40.481669 c 0,-0.03138 -0.262027,-0.269002 -0.582283,-0.528044 -0.583307,-0.471814 -7.2791463,-6.681859 -7.191209,-6.878404 0.3394404,-0.344695 0.7097773,-0.65937 1.0711771,-0.981177 2.4494479,2.625969 5.3562129,4.863641 7.7005129,7.582555 0,0.130255 -0.998198,0.983938 -0.998198,0.805072 z M 9.97757,31.296854 c 0.310547,-0.322125 0.671227,-0.590615 1.016916,-0.865763 0.281588,0 7.583368,7.581091 7.61063,7.625899 -0.169589,0.439833 -0.629699,0.616007 -1.008251,0.845748 -0.09569,0 -6.736129,-6.514012 -7.619295,-7.605884 z m 2.099131,-1.626937 c 0.282859,-0.816943 0.660101,-0.863359 1.320212,-0.886232 1.75817,1.885048 6.871494,7.586775 6.90365,7.660979 0.035,0.08078 -0.566821,0.713767 -0.787668,0.828451 -2.657408,-2.221313 -5.021816,-5.056881 -7.436194,-7.603198 z M 48.942974,43.984275 C 50.597514,42.531913 59.555596,33.933141 60.659203,32.755448 59.3199,31.189859 53.53499,25.950005 53.357224,25.864842 c -0.653764,-0.3132 -1.227324,-0.22957 -1.945717,0.283706 -2.958609,3.230129 -5.705546,6.715015 -8.485494,10.1138 -0.701358,0.715138 -1.354016,1.81612 -0.669972,3.111036 1.090401,2.064173 2.32043,3.220023 4.450397,4.182011 0.976958,0.441238 1.676908,0.575461 2.236536,0.42888 z m -0.518089,-4.297127 c 2.588097,-2.525849 5.172051,-5.055971 7.770945,-7.570724 l 1.15576,1.080113 c -2.644173,2.439575 -5.226864,4.948467 -7.918885,7.335141 -0.364642,-0.240596 -0.681767,-0.5533 -1.00782,-0.84453 z m -1.687472,-1.616663 c 0,-0.0023 7.352596,-7.639396 7.541904,-7.639396 0.09038,0 1.042602,0.882367 1.042602,0.966119 0,0.01782 -5.320934,5.468938 -7.620263,7.568281 -0.104582,0 -0.964243,-0.861281 -0.964243,-0.895004 z m -0.744506,-0.790029 c -0.698316,-0.252044 -0.586659,-0.706063 -0.703731,-1.114698 2.132754,-2.295707 4.086845,-4.762344 6.293302,-6.983441 0.7226,-0.889229 1.175669,-0.279583 1.83621,0.287912 -2.555411,2.51064 -4.6834,5.509838 -7.425781,7.810227 z M 42.3669,32.172483 c 0.0198,-0.07766 0.05738,-2.16733 0.08353,-4.643718 l 0.04754,-4.502524 c 2.035406,0.09191 3.9753,-0.353319 5.803286,-1.225345 C 53.653229,18.838574 55.114915,10.430319 47.579579,6.781259 42.841816,4.4869508 41.024678,6.4257957 39.317461,4.9108103 36.131159,2.0832807 30.199941,0.97137399 25.845957,4.8423715 25.184518,4.6918865 21.658929,3.9885266 18.754575,5.3462046 18.105339,5.6497004 14.446014,7.5163204 13.324543,11.511083 10.600829,21.213223 22.408658,25.32338 21.772637,21.961395 11.106157,21.692555 11.306929,3.5723035 26.046121,6.2510629 31.029564,2.2321006 37.773808,5.0055016 38.281283,9.5228831 38.381369,10.413815 38.175585,11.416479 38.136347,11.45348 38.116407,11.47228 37.527691,8.431972 35.147753,6.9583087 33.508773,5.3131837 26.665525,6.0680148 28.162301,9.1241267 18.95349,3.6024343 9.9126706,15.635778 22.780642,21.080901 v 5.585013 5.585012 h 0.187096 c 0.102903,0 0.650942,-0.124405 1.217866,-0.276454 1.520685,-0.407851 3.683822,-0.761247 5.637623,-0.921032 1.211807,-0.0991 5.201832,-0.04104 6.39982,0.09312 1.805315,0.202183 4.096763,0.621211 5.323725,0.973526 0.782559,0.224708 0.776302,0.224309 0.820118,0.0524 z m -3.615084,-4.449282 c -0.259346,-0.10025 -5.880348,-1.493467 -11.80817,-2.061333 0.03378,-0.71875 1.611425,-0.580255 9.545587,-0.24237 v -3.430019 c -16.112789,0.424 -7.537228,-0.294219 2.617098,-2.853897 0.3095,-0.07802 -0.354515,5.804164 -0.354515,8.587615 z m 4.359394,-6.803123 c 3.315905,-0.454074 6.06106,-2.502093 6.09697,-5.848146 0.04277,-3.983728 -5.408031,-7.5184682 -10.612797,-2.807817 0.354249,-0.694475 0.885759,-1.239367 1.437823,-1.778776 1.360516,-1.2945122 2.792945,-2.0092026 4.441913,-2.2162324 2.929669,-0.3678237 6.670341,1.6901506 6.680834,6.0344794 0.0025,1.042235 -0.08425,1.588166 -0.395513,2.488683 -0.750051,2.169938 -2.239531,3.788547 -4.18778,4.550836 -0.910323,0.35618 -1.831676,0.511721 -3.418718,0.57714 0,0 -0.510224,-0.687865 -0.04273,-1.000167 z"
     id="path1277"
     sodipodi:nodetypes="sscssssssssassssassscsssccssssssssssssssssssssscssscsssssssssssssscsssssscscccsssssssscssccsssssssssscssccssscssscscccsssscsccsscsss" />
</svg>
