<?xml version="1.0" encoding="utf-8"?>
<svg version="1.1" id="svg2" width="395.99997" height="396" viewBox="0 0 395.99997 396" xmlns="http://www.w3.org/2000/svg">
  <g id="g8" transform="translate(1.1050761,-49.714172)">
    <g id="g555" transform="matrix(1.0260786,0,0,1.0010467,2.7177149,10.177549)">
      <g>
        <g>
          <g>
            <ellipse style="fill:#000000" id="path542" cx="189.24203" cy="237.28825" rx="192.96767" ry="197.79297"/>
          </g>
          <g id="g549" transform="matrix(1, 0, 0, 1, -3.264409, 64.114632)" style="fill:#ffffff">
            <path style="fill:#ffffff" d="M 136.91 351.638 C 159.453 344.793 176.343 327.712 193.285 312.337 C 209.454 319.17 221.103 337.808 238.467 345.157 C 252.438 353.814 277.272 360.986 285.98 341.707 C 291.005 322.137 265.531 316.52 253.373 307.373 C 244.26 298.31 216.602 291.066 222.945 277.35 C 232.398 267.806 244.929 248.939 257.53 264.395 C 262.921 267.244 267.205 256.575 272.174 253.86 C 300.174 228.047 333.81 209.53 367.207 191.707 C 376.058 175.315 353.037 158.133 346.85 142.508 C 337.238 124.098 319.727 151.019 309.589 157.468 C 288.608 177.584 275.362 203.801 258.411 226.978 C 249.988 237.143 235.066 247.191 231.296 255.135 C 234.384 259.75 212.699 265.536 212.688 272.197 C 218.084 261.454 196.027 274.377 202.312 278.44 C 222.929 298.541 247.933 313.296 272.009 328.691 C 290.047 348.434 252.45 348.702 242.622 337.415 C 224.573 328.044 211.728 311.184 195.213 300.266 C 178.559 311.338 165.506 328.641 146.991 337.863 C 137.132 349.022 101.099 349.08 119.011 329.331 C 138.307 316.119 158.929 304.668 176.503 288.98 C 179.695 284.652 190.803 280.71 189.01 276.13 C 181.939 268.458 174.285 272.532 168.536 261.462 C 159.153 256.562 156.347 252.629 163.964 251.967 C 148.388 248.399 138.215 235.438 125.616 226.444 C 91.588 200.6 57.755 174.387 22.887 149.715 C 12.198 151.927 28.716 175.482 32.827 183.141 C 57.009 218.592 88.561 248.484 121.591 275.586 C 139.612 293.883 147.872 245.517 162.356 270.558 C 183.628 282.458 157.75 293.111 147.196 301.294 C 133.671 312.117 114.878 316.276 104.601 330.843 C 97.665 348.917 122.752 360.112 136.91 351.638 Z M 121.634 264.277 C 91.84 237.772 60.326 211.542 39.294 177.165 C 51.298 185.613 62.249 199.107 74.024 209.369 C 92.315 225.824 110.067 243.541 131.238 256.209 C 148.75 257.908 128.138 280.108 121.634 264.277 Z M 317.916 202.065 C 329.832 194.717 345.481 178.094 357.83 179.815 C 347.463 187.909 324.188 201.279 317.916 202.065 Z M 306.134 197.355 C 317.732 184.064 331.241 170.835 347.7 163.979 C 347.947 173.714 323.933 180.546 316.162 190.584 C 314.864 190.686 298.866 206.291 306.134 197.355 Z M 295.775 192.248 C 306.886 175.45 321.855 160.717 338.952 150.085 C 346.19 154.893 321.959 165.196 317.559 172.731 C 310.443 178.88 302.765 188.266 295.775 192.248 Z M 135.783 337.68 C 141.547 315.439 112.553 341.935 135.783 337.68 Z M 262.95 336.911 C 268.166 323.246 244.253 333.017 257.87 338.774 C 259.739 339.115 261.718 338.335 262.95 336.911 Z M 210.208 257.125 C 223.981 250.623 230.568 239.726 235.7 228.488 C 238.434 211.469 242.738 209.848 244.413 200.855 C 251.052 216.839 269.182 197.898 259.294 184.913 C 259.014 174.959 263.488 171.94 267.557 162.488 C 268.255 154.101 267.345 142.705 256.314 146.754 C 214.514 153.965 171.91 146.699 130.59 139.801 C 116.831 147.757 130.541 169.294 135.235 177.994 C 121.026 188.563 134.253 217.16 147.945 208.529 C 155.115 200.055 155.139 224.095 157.356 230.35 C 166.517 248.501 176.057 261.457 195.889 258.889 C 200.659 258.717 205.784 259.292 210.208 257.125 Z M 198.722 211.883 C 180.52 220.296 186.247 184.007 199.376 188.813 C 203.961 193.496 210.052 213.403 198.722 211.883 Z M 218.7 193.901 C 215.713 191.488 211.54 188.309 209.216 183.885 C 203.513 173.03 200.439 160.336 191.413 174.268 C 187.049 184.247 186.666 189.472 172.328 190.344 C 163.366 190.889 157.447 188.43 154.035 178.139 C 167.59 166.113 176.522 172.72 192.303 174.526 C 201.82 173.109 232.14 170.652 248.48 167.944 C 250.852 183.889 235.635 203.43 218.7 193.901 Z M 102.594 188.666 C 101.177 169.097 125.118 158.647 120.691 137.676 C 99.842 141.358 91.737 167.739 98.106 186.18 C 99.882 192.407 104.394 202.212 102.594 188.666 Z M 75.497 170.724 C 89.133 160.338 94.672 141.112 111.983 134.949 C 124.072 134.923 132.167 115.358 114.313 121.918 C 92.313 129.064 82.22 152.369 70.718 170.463 C 67.162 176.866 74.09 171.204 75.497 170.724 Z M 104.201 120.216 C 116.293 115.732 135.288 122.701 129.269 101.993 C 128.526 91.309 115.337 110.853 126.889 111.844 C 108.001 104.911 86.832 119.785 81.947 137.605 C 89.851 132.491 95.477 124.245 104.201 120.216 Z M 228.449 131.944 C 238.78 130.424 252.592 130.26 260.859 125.366 C 264.296 109.684 250.414 101.973 236.459 100.778 C 226.57 102.646 222.705 79.681 235.139 91.562 C 244.512 97.429 263.949 104.451 264.373 89.729 C 276.029 101.666 303.393 93.534 308.679 76.895 C 316.323 56.447 293.231 39.894 274.77 39.992 C 263.428 37.731 250.145 45.915 241.533 46.998 C 242.897 38.632 259.031 35.25 253.637 26.588 C 242.956 -6.93 196.792 -18.935 169.912 2.752 C 156.692 7.381 162.48 25.746 160.671 32.508 C 151.433 17.168 124.99 53.265 136.25 30.139 C 143.279 23.061 154.61 18.001 139.5 14.893 C 119.561 9.273 90.921 20.096 90.822 43.777 C 90.058 65.545 113.286 71.768 126.227 83.492 C 129.582 101.176 148.133 89.224 155.877 89.824 C 154.978 101.593 138.49 99.913 134.382 107.735 C 125.45 126.437 146.353 126.422 159.409 127.972 C 182.218 131.532 205.364 133.986 228.449 131.944 Z M 171.464 96.602 C 158.517 95.869 167.199 90.789 173.876 86.203 C 178.193 81.936 175.405 95.303 185.832 90.58 C 198.312 94.066 212.428 89.165 213.081 83.502 C 219.787 91.672 220.819 102.014 206.114 98.472 C 194.575 98.336 182.726 99.796 171.464 96.602 Z" id="path170"/>
            <path style="fill:#000000" d="M 172.582 224.81 C 184.723 227.181 192.525 226.794 200.073 227.003 C 201.328 227.038 210.117 225.661 210.795 225.421 C 224.627 220.53 224.784 215.404 217.954 225.344 C 206.836 238.372 191.18 240.393 172.582 224.81 Z" id="path470"/>
          </g>
          <path style="fill: none; stroke: rgb(0, 0, 0); stroke-width: 1.97324px;" d="M 243.443 234.357 C 243.443 234.357 253.342 228.661 257.392 229.037 C 266.435 229.877 265.978 224.518 265.978 224.518"/>
          <path style="fill: none; stroke: rgb(0, 0, 0); stroke-width: 1.97324px;" d="M 202.924 239.279 C 202.924 239.279 188.534 227.922 184.601 222.707 C 179.557 216.019 178.245 209.539 178.256 209.559"/>
        </g>
      </g>
    </g>
  </g>
</svg>